<svg width="64" height="64" viewBox="0 0 64 64" fill="none" xmlns="http://www.w3.org/2000/svg">
<path fill-rule="evenodd" clip-rule="evenodd" d="M8.99769 27.322C7.97399 27.351 7.87956 27.3662 7.44513 27.5715C6.69726 27.9248 6.18757 28.5608 5.96986 29.4122C5.88762 29.7338 5.88697 29.795 5.90662 35.3625C5.92299 40.0051 5.93648 41.0314 5.98371 41.237C6.19626 42.1618 6.96772 42.9398 7.92952 43.1994C8.21863 43.2774 8.41078 43.2796 15.6994 43.2908C24.1174 43.3037 23.3693 43.3306 24.0844 42.9895C24.5599 42.7627 25.011 42.3123 25.2553 41.8205C25.5942 41.1383 25.567 41.6732 25.5802 35.4234C25.593 29.3388 25.5999 29.5413 25.3594 28.9698C25.0436 28.2197 24.3466 27.608 23.5383 27.3718C23.3106 27.3052 22.8576 27.3003 16.6335 27.2975C12.97 27.2958 9.53382 27.3068 8.99769 27.322ZM6.99685 30.6743C6.66404 30.8737 6.55819 31.3131 6.77394 31.5995C6.90891 31.7787 7.69918 32.5071 9.48573 34.0987C10.2226 34.7551 10.8706 35.3353 10.9257 35.3879L11.0261 35.4838L10.8982 35.5957C8.0971 38.0475 6.79072 39.2266 6.72715 39.3605C6.43988 39.9659 7.18819 40.5846 7.74995 40.206C7.8411 40.1446 8.29397 39.7561 8.7563 39.3429C9.91683 38.3055 11.9927 36.4981 12.053 36.4724C12.0979 36.4533 12.6016 36.8778 13.6279 37.7999C14.238 38.3481 14.6014 38.5508 15.2048 38.6796C15.6025 38.7646 16.2081 38.7298 16.6009 38.5994C17.1301 38.4238 17.4093 38.2149 18.7162 37.0166L19.3772 36.4104L19.5082 36.5108C19.5802 36.566 19.9023 36.8466 20.2239 37.1342C20.5455 37.4219 21.0498 37.8675 21.3445 38.1244C21.6393 38.3813 22.2595 38.9296 22.7228 39.3429C23.7289 40.2404 23.8594 40.328 24.1581 40.3062C24.5307 40.279 24.8175 39.9661 24.8177 39.5868C24.8177 39.4088 24.8074 39.3941 24.4014 38.9973C24.1725 38.7735 23.5662 38.2251 23.0543 37.7786C22.1387 36.9801 21.1121 36.0725 20.6769 35.6767L20.4555 35.4754L20.6566 35.2867C20.7672 35.183 21.0039 34.9681 21.1826 34.8093C21.8508 34.2155 23.2261 32.9829 23.5789 32.6616C23.78 32.4785 24.105 32.1843 24.3011 32.0077C24.7844 31.5728 24.8985 31.3245 24.7618 31.0051C24.6013 30.6299 24.1307 30.4565 23.8075 30.6535C23.7322 30.6995 23.2478 31.1155 22.7312 31.5781C22.2146 32.0406 21.5542 32.6266 21.2638 32.8802C20.9734 33.1339 20.6079 33.4554 20.4515 33.5947C20.2951 33.7341 19.9204 34.0628 19.6188 34.3253C18.7465 35.0845 17.9472 35.7903 17.186 36.4734C16.7974 36.8222 16.3953 37.1488 16.2925 37.1992C16.1434 37.2723 16.0357 37.2909 15.7603 37.2913C15.4623 37.2917 15.3827 37.2759 15.1791 37.1759C15.0493 37.1121 14.8275 36.9568 14.6864 36.8306C14.5451 36.7045 14.1122 36.3155 13.7242 35.9663C13.0603 35.3689 9.2093 31.9783 8.15859 31.0663C7.89422 30.8368 7.63095 30.6312 7.5736 30.6094C7.39334 30.5409 7.17925 30.565 6.99685 30.6743Z" fill="white"/>
</svg>
